<svg width="369" height="91" viewBox="0 0 369 91" fill="none" xmlns="http://www.w3.org/2000/svg">
<g clip-path="url(#clip0_1077_93)">
<path d="M304.227 15.5341L309 1.72729H310.023L342.068 89H330.988L304.909 15.5341H304.227ZM290.249 54.9091H326.898V64.2841H286.921L290.249 54.9091Z" fill="#888888"/>
</g>
<path d="M3.82083 21.8625V7.125H60.7694V21.8625H40.7556V89H23.8347V21.8625H3.82083ZM84.2971 90.4556C79.2633 90.4556 74.6844 89.1516 70.5603 86.5437C66.4363 83.9359 63.1309 80.4789 60.6444 76.1729C58.2184 71.8062 57.0055 66.9847 57.0055 61.7083C57.0055 56.4319 58.2184 51.6104 60.6444 47.2438C63.1309 42.8771 66.4363 39.4201 70.5603 36.8729C74.6844 34.265 79.2633 32.9611 84.2971 32.9611C87.8147 32.9611 91.0291 33.5979 93.9402 34.8715C96.8513 36.0845 99.3379 37.7826 101.4 39.966V34.4167H115.046V89H101.4V83.4507C99.3379 85.634 96.8513 87.3625 93.9402 88.6361C91.0291 89.8491 87.8147 90.4556 84.2971 90.4556ZM86.2076 76.5368C88.8761 76.5368 91.302 75.8697 93.4853 74.5354C95.6687 73.2012 97.3971 71.412 98.6707 69.1681C100.005 66.9241 100.672 64.4375 100.672 61.7083C100.672 58.9792 100.005 56.4926 98.6707 54.2486C97.3971 52.0046 95.6687 50.2155 93.4853 48.8812C91.302 47.547 88.8761 46.8799 86.2076 46.8799C83.539 46.8799 81.1131 47.547 78.9298 48.8812C76.7464 50.2155 74.9876 52.0046 73.6534 54.2486C72.3798 56.4926 71.743 58.9792 71.743 61.7083C71.743 64.4375 72.3798 66.9241 73.6534 69.1681C74.9876 71.412 76.7464 73.2012 78.9298 74.5354C81.1131 75.8697 83.539 76.5368 86.2076 76.5368ZM127.208 89V1.66666H143.037V89H127.208ZM191.468 89L169.726 58.9792L187.647 34.4167H204.659L187.01 57.6146L210.117 89H191.468ZM155.17 89V1.66666H170.999V89H155.17Z" fill="#888888"/>
<path d="M366.379 1.72727V89H355.81V1.72727H366.379Z" fill="#888888"/>
<mask id="path-4-inside-1_1077_93" fill="white">
<path d="M222.811 89L210.283 39.9091H218.209L226.966 77.4943H227.477L239.814 39.9091H247.868L256.369 77.3665H256.881L269.345 39.9091H277.271L259.885 89H252.47L243.585 51.2869H242.818L230.226 89H222.811Z"/>
</mask>
<path d="M222.811 89L221.358 89.3709L221.646 90.5H222.811V89ZM210.283 39.9091V38.4091H208.352L208.829 40.28L210.283 39.9091ZM218.209 39.9091L219.67 39.5687L219.399 38.4091H218.209V39.9091ZM226.966 77.4943L225.505 77.8347L225.775 78.9943H226.966V77.4943ZM227.477 77.4943V78.9943H228.564L228.902 77.9621L227.477 77.4943ZM239.814 39.9091V38.4091H238.728L238.389 39.4413L239.814 39.9091ZM247.868 39.9091L249.331 39.5771L249.066 38.4091H247.868V39.9091ZM256.369 77.3665L254.907 77.6985L255.172 78.8665H256.369V77.3665ZM256.881 77.3665V78.8665H257.962L258.304 77.8401L256.881 77.3665ZM269.345 39.9091V38.4091H268.263L267.922 39.4355L269.345 39.9091ZM277.271 39.9091L278.685 40.4099L279.394 38.4091H277.271V39.9091ZM259.885 89V90.5H260.945L261.299 89.5008L259.885 89ZM252.47 89L251.01 89.344L251.282 90.5H252.47V89ZM243.585 51.2869L245.045 50.943L244.773 49.7869H243.585V51.2869ZM242.818 51.2869V49.7869H241.738L241.395 50.8119L242.818 51.2869ZM230.226 89V90.5H231.306L231.649 89.4751L230.226 89ZM222.811 89L224.264 88.6291L211.736 39.5382L210.283 39.9091L208.829 40.28L221.358 89.3709L222.811 89ZM210.283 39.9091V41.4091H218.209V39.9091V38.4091H210.283V39.9091ZM218.209 39.9091L216.748 40.2495L225.505 77.8347L226.966 77.4943L228.427 77.1539L219.67 39.5687L218.209 39.9091ZM226.966 77.4943V78.9943H227.477V77.4943V75.9943H226.966V77.4943ZM227.477 77.4943L228.902 77.9621L241.239 40.3769L239.814 39.9091L238.389 39.4413L226.052 77.0265L227.477 77.4943ZM239.814 39.9091V41.4091H247.868V39.9091V38.4091H239.814V39.9091ZM247.868 39.9091L246.405 40.2411L254.907 77.6985L256.369 77.3665L257.832 77.0345L249.331 39.5771L247.868 39.9091ZM256.369 77.3665V78.8665H256.881V77.3665V75.8665H256.369V77.3665ZM256.881 77.3665L258.304 77.8401L270.768 40.3827L269.345 39.9091L267.922 39.4355L255.457 76.8929L256.881 77.3665ZM269.345 39.9091V41.4091H277.271V39.9091V38.4091H269.345V39.9091ZM277.271 39.9091L275.857 39.4083L258.471 88.4992L259.885 89L261.299 89.5008L278.685 40.4099L277.271 39.9091ZM259.885 89V87.5H252.47V89V90.5H259.885V89ZM252.47 89L253.93 88.656L245.045 50.943L243.585 51.2869L242.125 51.6309L251.01 89.344L252.47 89ZM243.585 51.2869V49.7869H242.818V51.2869V52.7869H243.585V51.2869ZM242.818 51.2869L241.395 50.8119L228.803 88.5249L230.226 89L231.649 89.4751L244.241 51.762L242.818 51.2869ZM230.226 89V87.5H222.811V89V90.5H230.226V89Z" fill="#888888" mask="url(#path-4-inside-1_1077_93)"/>
<g clip-path="url(#clip1_1077_93)">
<mask id="mask0_1077_93" style="mask-type:luminance" maskUnits="userSpaceOnUse" x="267" y="1" width="76" height="88">
<path d="M278.148 89H267.068L299.114 1.72729H310.023L342.068 89H330.989L304.909 15.5341H304.227L278.148 89ZM282.239 54.9091H326.898V64.2841H282.239V54.9091Z" fill="white"/>
</mask>
<g mask="url(#mask0_1077_93)">
<path d="M278.148 89V90.5H279.207L278.148 89ZM267.068 89L265.66 88.483L264.919 90.5H267.068V89ZM304.227 15.5341L309.284 1.72729H307.5L302.814 15.0323L304.227 15.5341ZM278.148 89V87.5H267.068V89V90.5H278.148V89ZM267.068 89L268.476 89.517L300.522 2.24432L299.114 1.72729L265.66 88.483L267.068 89ZM299.114 1.72729V3.22729H308.734L309.284 1.72729L299.125 1.73157L299.114 1.72729ZM304.227 15.5341L302.814 15.0323L276.734 88.4982L278.148 89L304.227 15.5341Z" fill="#888888"/>
</g>
</g>
<defs>
<clipPath id="clip0_1077_93">
<rect width="76" height="88" fill="white" transform="translate(267 1)"/>
</clipPath>
<clipPath id="clip1_1077_93">
<rect width="44" height="88" fill="white" transform="translate(267 1)"/>
</clipPath>
</defs>
</svg>
